<?xml version="1.0"?>
<svg xmlns="http://www.w3.org/2000/svg" height="640" width="920" version="1">
	<path d="M177.441 472.957h-65.625l-11.5 26.75c-2.833 6.584-4.25 11.5-4.25 14.75 0 2.584 1.209 4.875 3.625 6.875 2.5 1.917 7.834 3.167 16 3.75v4.625H62.316v-4.625c7.084-1.25 11.667-2.875 13.75-4.875 4.25-4 8.959-12.125 14.125-24.375l59.625-139.5h4.375l59 141c4.75 11.334 9.042 18.709 12.875 22.125 3.917 3.334 9.334 5.209 16.25 5.625v4.625h-66.875v-4.625c6.75-.333 11.292-1.458 13.625-3.375 2.417-1.916 3.625-4.25 3.625-7 0-3.666-1.666-9.458-5-17.375l-10.25-24.375m-3.5-9.25l-28.75-68.5-29.5 68.5h58.25m220.125-103.5v4.625c-6 1.084-10.541 3-13.625 5.75-4.416 4.084-8.333 10.334-11.75 18.75l-59.125 144.25h-4.625l-63.5-146.125c-3.25-7.5-5.541-12.083-6.875-13.75-2.083-2.583-4.666-4.583-7.75-6-3-1.5-7.083-2.458-12.25-2.875v-4.625h69.25v4.625c-7.833.75-12.916 2.084-15.25 4-2.333 1.917-3.5 4.375-3.5 7.375 0 4.167 1.917 10.667 5.75 19.5l43.125 99.375 40-98.125c3.917-9.666 5.875-16.375 5.875-20.125 0-2.416-1.208-4.708-3.625-6.875-2.416-2.25-6.5-3.833-12.25-4.75a78.48 78.48 0 0 0-2.125-.375v-4.625h52.25m361.875 0v4.625c-4.416 0-8 .792-10.75 2.375-2.75 1.584-5.375 4.542-7.875 8.875-1.666 2.917-4.291 9.876-7.875 20.875l-47.25 136.625h-5l-38.625-108.375-38.375 108.375h-4.5l-50.375-140.75c-3.75-10.5-6.125-16.708-7.125-18.625-1.666-3.166-3.958-5.5-6.875-7-2.833-1.583-6.708-2.374-11.625-2.375v-4.625h62.75v4.625h-3c-4.416 0-7.791 1-10.125 3-2.333 2-3.5 4.417-3.5 7.25 0 2.917 1.834 9.626 5.5 20.125l33.375 95.125 28.125-80.875-5-14.25-4-11.375c-1.75-4.166-3.708-7.833-5.875-11a15.225 15.225 0 0 0-4-4c-2.083-1.5-4.166-2.583-6.25-3.25-1.583-.5-4.083-.75-7.5-.75v-4.625h66v4.625h-4.5c-4.666 0-8.083 1-10.25 3-2.166 2-3.25 4.709-3.25 8.125 0 4.25 1.875 11.667 5.625 22.25l32.5 92.125 32.25-93.375c3.667-10.333 5.5-17.5 5.5-21.5 0-1.916-.625-3.708-1.875-5.375-1.166-1.666-2.666-2.833-4.5-3.5-3.166-1.166-7.291-1.75-12.375-1.75v-4.625h50.625m53.75 153c-11.75 9.084-19.125 14.334-22.125 15.75-4.5 2.084-9.291 3.125-14.375 3.125-7.916 0-14.458-2.708-19.625-8.125-5.083-5.416-7.625-12.541-7.625-21.375 0-5.583 1.25-10.416 3.75-14.5 3.417-5.666 9.334-11 17.75-16 8.5-5 22.584-11.083 42.25-18.25v-4.5c0-11.416-1.833-19.25-5.5-23.5-3.583-4.25-8.833-6.374-15.75-6.375-5.25 0-9.416 1.417-12.5 4.25-3.166 2.834-4.75 6.084-4.75 9.75l.25 7.25c0 3.834-1 6.792-3 8.875-1.916 2.084-4.458 3.125-7.625 3.125-3.083 0-5.625-1.083-7.625-3.25-1.916-2.166-2.875-5.125-2.875-8.875 0-7.166 3.667-13.75 11-19.75 7.334-6 17.625-9 30.875-9 10.167 0 18.5 1.709 25 5.125 4.917 2.584 8.542 6.625 10.875 12.125 1.5 3.584 2.25 10.917 2.25 22v38.875c0 10.917.209 17.625.625 20.125.417 2.417 1.084 4.042 2 4.875 1 .834 2.125 1.25 3.375 1.25 1.334 0 2.5-.291 3.5-.875 1.75-1.083 5.125-4.125 10.125-9.125v7c-9.333 12.5-18.25 18.75-26.75 18.75-4.083 0-7.333-1.416-9.75-4.25-2.416-2.833-3.666-7.666-3.75-14.5m0-8.125v-43.625c-12.583 5-20.708 8.542-24.375 10.625-6.583 3.667-11.291 7.5-14.125 11.5-2.833 4-4.25 8.375-4.25 13.125 0 6 1.792 11 5.375 15 3.584 3.917 7.709 5.875 12.375 5.875 6.334 0 14.667-4.166 25-12.5M177.441 168.957h-65.625l-11.5 26.75c-2.833 6.584-4.25 11.5-4.25 14.75 0 2.584 1.209 4.875 3.625 6.875 2.5 1.917 7.834 3.167 16 3.75v4.625H62.316v-4.625c7.084-1.25 11.667-2.875 13.75-4.875 4.25-4 8.959-12.125 14.125-24.375l59.625-139.5h4.375l59 141c4.75 11.334 9.042 18.709 12.875 22.125 3.917 3.334 9.334 5.209 16.25 5.625v4.625h-66.875v-4.625c6.75-.333 11.292-1.458 13.625-3.375 2.417-1.916 3.625-4.25 3.625-7 0-3.666-1.666-9.458-5-17.375l-10.25-24.375m-3.5-9.25l-28.75-68.5-29.5 68.5h58.25M422.06 56.207v4.625c-6 1.084-10.542 3-13.625 5.75-4.417 4.084-8.333 10.334-11.75 18.75l-59.125 144.25h-4.625l-63.5-146.125c-3.25-7.5-5.542-12.083-6.875-13.75-2.083-2.583-4.667-4.583-7.75-6-3-1.5-7.083-2.458-12.25-2.875v-4.625h69.25v4.625c-7.833.75-12.917 2.084-15.25 4-2.333 1.917-3.5 4.375-3.5 7.375 0 4.167 1.917 10.667 5.75 19.5l43.125 99.375 40-98.125c3.917-9.666 5.875-16.375 5.875-20.125 0-2.416-1.208-4.708-3.625-6.875-2.417-2.25-6.5-3.833-12.25-4.75a78.487 78.487 0 0 0-2.125-.375v-4.625h52.25M756.158 56.207v4.625c-4.417 0-8 .792-10.75 2.375-2.75 1.584-5.376 4.542-7.875 8.875-1.667 2.917-4.292 9.875-7.875 20.875l-47.25 136.625h-5l-38.625-108.375-38.375 108.375h-4.5l-50.375-140.75c-3.75-10.5-6.125-16.708-7.125-18.625-1.667-3.166-3.959-5.5-6.875-7-2.834-1.583-6.709-2.375-11.625-2.375v-4.625h62.75v4.625h-3c-4.417 0-7.792 1-10.125 3-2.334 2-3.5 4.417-3.5 7.25 0 2.917 1.833 9.625 5.5 20.125l33.375 95.125 28.125-80.875-5-14.25-4-11.375c-1.75-4.166-3.709-7.833-5.875-11a15.225 15.225 0 0 0-4-4c-2.084-1.5-4.167-2.583-6.25-3.25-1.584-.5-4.084-.75-7.5-.75v-4.625h66v4.625h-4.5c-4.667 0-8.084 1-10.25 3-2.167 2-3.25 4.709-3.25 8.125 0 4.25 1.875 11.667 5.625 22.25l32.5 92.125 32.25-93.375c3.666-10.333 5.5-17.5 5.5-21.5 0-1.916-.626-3.708-1.875-5.375-1.167-1.666-2.667-2.833-4.5-3.5-3.167-1.166-7.292-1.75-12.375-1.75v-4.625h50.625M821.886 209.18c-11.75 9.084-19.125 14.334-22.125 15.75-4.5 2.084-9.291 3.126-14.375 3.126-7.916 0-14.458-2.709-19.625-8.125-5.083-5.417-7.625-12.542-7.625-21.375 0-5.584 1.25-10.417 3.75-14.5 3.417-5.667 9.334-11 17.75-16 8.5-5 22.584-11.084 42.25-18.25v-4.5c0-11.417-1.833-19.25-5.5-23.5-3.583-4.25-8.833-6.375-15.75-6.375-5.25 0-9.416 1.416-12.5 4.25-3.166 2.833-4.75 6.083-4.75 9.75l.25 7.25c0 3.833-1 6.791-3 8.875-1.916 2.083-4.458 3.125-7.625 3.125-3.083 0-5.625-1.084-7.625-3.25-1.916-2.167-2.875-5.125-2.875-8.875 0-7.167 3.667-13.75 11-19.75 7.334-6 17.625-9 30.875-9 10.167 0 18.5 1.708 25 5.125 4.917 2.583 8.542 6.625 10.875 12.125 1.5 3.583 2.25 10.916 2.25 22v38.875c0 10.916.209 17.625.625 20.125.417 2.416 1.084 4.041 2 4.875 1 .833 2.125 1.25 3.375 1.25 1.334 0 2.5-.292 3.5-.875 1.75-1.084 5.125-4.125 10.125-9.125v7c-9.333 12.5-18.25 18.75-26.75 18.75-4.083 0-7.333-1.417-9.75-4.25-2.416-2.834-3.666-7.667-3.75-14.5m0-8.125V157.43c-12.583 5-20.708 8.541-24.375 10.625-6.583 3.666-11.291 7.5-14.125 11.5-2.833 4-4.25 8.375-4.25 13.125 0 6 1.792 11 5.375 15 3.584 3.916 7.709 5.875 12.375 5.875 6.334 0 14.667-4.167 25-12.5"/>
	<path d="M215 360V530M242 360V530M756 360V530M243 56v170M756 56V226" fill="none" stroke="#0097ff" stroke-width="2"/>
	<text font-family="'Helvetica Neue', Helvetica, Arial, sans-serif" font-size="56" fill="navy">
		<tspan y="280" x="60">No kerning</tspan>
		<tspan y="580" x="60">Kerning applied</tspan>
	</text>
</svg>
