<?xml version="1.0" encoding="utf-8"?>
<!-- Generator: Adobe Illustrator 19.0.1, SVG Export Plug-In . SVG Version: 6.00 Build 0)  -->
<svg version="1.1"
	 id="infot" xmlns:cc="http://creativecommons.org/ns#" xmlns:dc="http://purl.org/dc/elements/1.1/" xmlns:inkscape="http://www.inkscape.org/namespaces/inkscape" xmlns:rdf="http://www.w3.org/1999/02/22-rdf-syntax-ns#" xmlns:svg="http://www.w3.org/2000/svg" xmlns:sodipodi="http://sodipodi.sourceforge.net/DTD/sodipodi-0.dtd" inkscape:output_extension="org.inkscape.output.svg.inkscape" sodipodi:docname="Metal_type_kerning.svg" inkscape:version="0.47pre0" sodipodi:version="0.32"
	 xmlns="http://www.w3.org/2000/svg" xmlns:xlink="http://www.w3.org/1999/xlink" x="0px" y="0px" viewBox="-784 872.4 430.3 257.6"
	 style="enable-background:new -784 872.4 430.3 257.6;" xml:space="preserve">
<style type="text/css">
	.st0{fill:#E4EDF1;stroke:#2E2113;stroke-width:0.5;stroke-linejoin:round;}
	.st1{fill:#B6C4CA;stroke:#2E2113;stroke-width:0.5;stroke-linejoin:round;}
	.st2{fill:#A2AEB3;stroke:#2E2113;stroke-width:0.5;stroke-linejoin:round;}
	.st3{fill:#D2DFE5;stroke:#2E2113;stroke-width:0.5;stroke-linejoin:round;}
	.st4{fill:#B6C4CA;stroke:#000000;stroke-width:0.5;stroke-linejoin:round;}
	.st5{fill:#D2DFE5;stroke:#000000;stroke-width:0.5;stroke-linejoin:round;}
	.st6{fill:#E4EDF1;stroke:#000000;stroke-width:0.5;}
	.st7{fill:#004C43;stroke:#000000;stroke-width:0.5;stroke-linejoin:round;}
	.st8{fill:#009986;stroke:#000000;stroke-width:0.5;stroke-linejoin:round;}
	.st9{fill:#007468;stroke:#000000;stroke-width:0.5;}
</style>
<g id="g3164" transform="translate(0,14.006296)" inkscape:label="Shank No Kerning" sodipodi:insensitive="true" inkscape:groupmode="layer">
	<path id="polygon3168" sodipodi:nodetypes="ccccc" class="st0" d="M-675.7,879.2l105.3,60.8l-92.7,53.8L-768.4,933L-675.7,879.2z"
		/>
	<path id="path3170" sodipodi:nodetypes="ccccccccc" class="st1" d="M-576.2,1019.6c0-3.3,0.8-5.9,2.7-7.5c0-0.1,3.2-1.8,3.2-1.8
		V940l-92.8,53.7v112l92.8-53.7v-23.1C-573.6,1028.4-576.2,1024.4-576.2,1019.6z"/>
	<path id="path3172" sodipodi:nodetypes="cccsccccccccc" class="st2" d="M-576.2,1019.6c0-3.1,1-5.8,2.7-7.5l-89.5,51.5
		c-3.3,0.5-5.8,4.5-5.8,9.3s2.6,8.8,5.8,9.3v0l92.7-53.3v0C-573.6,1028.4-576.2,1024.4-576.2,1019.6L-576.2,1019.6z M-570.5,1010.3
		c0,0,0.1,0,0.1,0v0L-570.5,1010.3L-570.5,1010.3z"/>
	<path id="path3184" sodipodi:nodetypes="ccccccccccsc" class="st3" d="M-663.1,1063.6v-69.9L-768.4,933v112l27.7,16l4.2-3.3
		l25.2,14.6l4.2,8.2l43.9,25.4v-23.5c-3.3-0.5-5.8-4.5-5.8-9.3S-666.4,1064.1-663.1,1063.6L-663.1,1063.6z"/>
</g>
<g id="g6267" transform="translate(0,14.006296)" inkscape:label="Shank Kerning" inkscape:groupmode="layer">
	<path id="path6269" sodipodi:nodetypes="ccccc" class="st0" d="M-475.5,879.2l105.3,60.8l-74,42.8L-549.4,922L-475.5,879.2z"/>
	<path id="path6271" sodipodi:nodetypes="ccccccccc" class="st1" d="M-376,1019.6c0-3.3,0.8-5.9,2.7-7.5c0-0.1,3.2-1.8,3.2-1.8V940
		l-74,42.7v112l74-42.7v-23.1C-373.4,1028.4-376,1024.4-376,1019.6L-376,1019.6z"/>
	<path id="path6273" sodipodi:nodetypes="cccsccccccccc" class="st2" d="M-376,1019.6c0-3.1,1-5.8,2.7-7.5l-70.8,40.3
		c-3.3,0.5-5.8,4.5-5.8,9.3s2.6,8.8,5.8,9.3v0l74-42.1v0C-373.4,1028.4-376,1024.4-376,1019.6L-376,1019.6z M-370.3,1010.3
		c0,0,0.1,0,0.1,0v0L-370.3,1010.3L-370.3,1010.3z"/>
	<path id="path6275" sodipodi:nodetypes="ccccccccccsc" class="st3" d="M-444.2,1052.4v-69.9l-105.3-60.8v112l27.7,16l4.2-3.3
		l25.2,14.6l4.2,8.2l43.9,25.4V1071c-3.3-0.5-5.8-4.5-5.8-9.3S-447.4,1052.9-444.2,1052.4L-444.2,1052.4z"/>
</g>
<g id="layer7" transform="translate(0,14.006296)" inkscape:label="Glyph No Kerning" sodipodi:insensitive="true" inkscape:groupmode="layer">
	<g id="g6252" transform="matrix(-1,0,0,1,241.29881,-13.250474)">
		<path id="path5882" class="st4" d="M916.9,891.1v12c2.3,0.3,5.3,1.3,8.6,2.7c3.6,1.6,7.1,3.5,10.6,5.4l10,5.8l3.2,2.4v-12
			c-0.1-1.1-1.9-1.7-3.2-2.4l-10-5.8c-3.5-1.9-6.9-4.3-10.6-5.4C922.7,892.3,919.9,891.6,916.9,891.1z"/>
		<path id="path5890" class="st5" d="M915.4,891c-1.5,0-2.9,0.2-4.3,0.6c-1.8,0.5-3.7,1-5.7,1.8v12c2.2-0.9,3.9-1.4,5.7-1.8
			c2.4-0.7,4.3-0.7,5.8-0.5v-12C916.4,891,915.9,891,915.4,891z"/>
		<path id="path5894" sodipodi:nodetypes="ccccccc" class="st4" d="M902,891.2v12c0,0.8,0.5,0.9,1.1,1.4c0.6,0.4,1.3,0.7,2.4,0.8
			v-12c-1.1-0.3-1.7-0.6-2.4-0.8C902.5,892.2,902.3,891.7,902,891.2z"/>
		<path id="path5920" class="st5" d="M1002.6,930.3c-2.2,1.6-4.1,3.4-5.7,5.7c-1.8,1.9-3.6,3.7-5.1,6.4v12c1.6-2.2,3.2-4.4,5.1-6.4
			c1.8-1.9,3.6-3.8,5.7-5.7V930.3z"/>
		<path id="path5932" sodipodi:nodetypes="ccccccccccc" class="st4" d="M961.9,914.7v12c1.2,0,2.8,1.2,4.2,1.9
			c2.8,1.6,5.3,3.1,7.8,4.5c3,1.7,6.1,3.8,9.2,5.9c4,2.8,5.7,5.2,6.7,6.8v-12c-1-2.8-4.5-5.3-6.7-6.8c-2.9-2.1-5.9-4.1-9.2-5.9
			c-2.6-1.7-4.9-3.3-7.8-4.5C964.7,915.9,963.3,914.5,961.9,914.7z"/>
		<path id="path5940" class="st5" d="M961.4,914.7c-0.6,0.1-1.7,0.7-3.1,1.4l-48.5,26.8c-3.7,2-9.4,4.9-9.7,7.5l0.2,11.3l9.5-6.8
			l48.5-26.8c1.2-0.6,2.5-1.4,3.5-1.4v-12C961.8,914.6,961.6,914.6,961.4,914.7z"/>
		<path id="path5950" class="st5" d="M909.9,958.7c-0.1,0.4-0.3,0.9-0.7,1.2c-0.6,0.2-1.2,0.4-2,0.3v12c0.7,0.1,1.4,0.1,2-0.3
			c0.3-0.3,0.9-0.3,0.7-1.2V958.7z"/>
		<path id="path5954" class="st4" d="M869,937.9v12l10.4,5.8l8.4,4.8l8.5,5l10.8,6.6v-12l-10.8-6.6l-8.5-5l-8.4-4.8L869,937.9z"/>
		<path id="path5924" class="st4" d="M987.4,940.7v12c0.6,0.5,1.3,1,1.9,1.3c0.9,0.3,1.7,0.4,2.6,0.4v-12c-0.8,0-1.6,0-2.6-0.4
			C988.7,941.7,988.1,941.2,987.4,940.7z"/>
		<g id="text4107-1" transform="matrix(-1.0719645,-0.62456957,-0.82134059,0.45432069,-4.9971263e-7,3.7082879e-6)">
			<path id="path4440-7" class="st6" d="M-1177,383.7c-0.1-2.1,0.1-3.4,0.4-3.9c0.4-0.5,1.5-0.7,3.4-0.6h9.4c3.6,0,6.7,0.3,9.2,0.8
				c2.5,0.5,4.6,1.4,6.1,2.5c1,0.8,1.7,2.2,2.2,4.1c0.5,1.9,0.9,3.8,1.1,5.5c0.4,0.4,1,0.6,1.8,0.6c0.8,0,1.3-0.3,1.7-0.8
				c-0.2-2.2-0.1-5.4,0.3-9.5c0.4-4.1,0.9-7.6,1.7-10.6c-0.2-0.3-0.5-0.4-1-0.5c-0.5-0.1-1,0-1.3,0.1c-0.8,1.7-1.9,2.7-3.2,3.1
				c-1.3,0.4-3.7,0.6-7.1,0.6h-53.5c-3.1,0.1-5.6-0.1-7.6-0.5c-2-0.4-3.2-1.6-3.6-3.6c-0.3-0.2-0.7-0.3-1.3-0.2
				c-0.6,0-1,0.1-1.3,0.2c-0.5,2.8-1.2,6-2.1,9.6c-0.9,3.6-1.9,7-3,10.1c0.3,0.6,0.8,0.9,1.5,1.2c0.7,0.2,1.3,0.1,1.9-0.2
				c0.7-1.6,1.5-3.2,2.3-4.7c0.9-1.5,2.1-3,3.6-4.4c1.8-1.5,4.2-2.4,7.2-2.8c3.1-0.4,6.1-0.6,9-0.5h7.3c1.9-0.1,3.1,0.1,3.5,0.6
				c0.4,0.5,0.6,1.7,0.5,3.6v59c0.1,6.7-0.3,11.1-1.3,13.2c-1,2.1-3.3,3.2-6.9,3.3l-4.8,0.4c-0.5,0.4-0.7,1-0.7,1.7
				c0,0.8,0.3,1.3,0.7,1.6c4.1-0.1,7.6-0.2,10.4-0.3c2.8-0.1,5.4-0.1,8-0.1c2.6,0,5.2,0,7.8,0.1c2.6,0.1,5.8,0.2,9.5,0.3
				c0.4-0.3,0.6-0.8,0.7-1.6c0.1-0.8-0.1-1.4-0.5-1.7l-4.2-0.4c-3.7-0.1-6-1.2-6.8-3.3c-0.9-2.1-1.2-6.5-1.1-13.2L-1177,383.7z"/>
		</g>
	</g>
</g>
<sodipodi:namedview  showgrid="false" inkscape:cx="132.6006" showguides="true" inkscape:cy="168.30424" bordercolor="#666666" id="base" inkscape:zoom="1.4142136" borderopacity="1.0" pagecolor="#ffffff" inkscape:window-maximized="1" inkscape:guide-bbox="true" inkscape:pageshadow="2" inkscape:current-layer="layer8" inkscape:window-width="1920" inkscape:window-height="1033" inkscape:window-y="-4" inkscape:window-x="-4" inkscape:pageopacity="0.0">
	</sodipodi:namedview>
<defs>
	
	
		<inkscape:perspective  sodipodi:type="inkscape:persp3d" inkscape:vp_x="0 : 121.8035 : 1" inkscape:vp_z="212.27901 : 121.8035 : 1" inkscape:vp_y="0 : 1000 : 0" id="perspective2947" inkscape:persp3d-origin="106.1395 : 81.202332 : 1">
		</inkscape:perspective>
	
		<inkscape:perspective  sodipodi:type="inkscape:persp3d" inkscape:vp_x="0 : 0.5 : 1" inkscape:vp_z="1 : 0.5 : 1" inkscape:vp_y="0 : 1000 : 0" id="perspective2957" inkscape:persp3d-origin="0.5 : 0.33333333 : 1">
		</inkscape:perspective>
	
		<inkscape:perspective  sodipodi:type="inkscape:persp3d" inkscape:vp_x="0 : 0.5 : 1" inkscape:vp_z="1 : 0.5 : 1" inkscape:vp_y="0 : 1000 : 0" id="perspective4119" inkscape:persp3d-origin="0.5 : 0.33333333 : 1">
		</inkscape:perspective>
	
		<inkscape:perspective  sodipodi:type="inkscape:persp3d" inkscape:vp_x="0 : 0.5 : 1" inkscape:vp_z="1 : 0.5 : 1" inkscape:vp_y="0 : 1000 : 0" id="perspective4156" inkscape:persp3d-origin="0.5 : 0.33333333 : 1">
		</inkscape:perspective>
	
		<inkscape:perspective  sodipodi:type="inkscape:persp3d" inkscape:vp_x="0 : 0.5 : 1" inkscape:vp_z="1 : 0.5 : 1" inkscape:vp_y="0 : 1000 : 0" id="perspective5310" inkscape:persp3d-origin="0.5 : 0.33333333 : 1">
		</inkscape:perspective>
	
		<inkscape:perspective  sodipodi:type="inkscape:persp3d" inkscape:vp_x="0 : 0.5 : 1" inkscape:vp_z="1 : 0.5 : 1" inkscape:vp_y="0 : 1000 : 0" id="perspective5335" inkscape:persp3d-origin="0.5 : 0.33333333 : 1">
		</inkscape:perspective>
	
		<inkscape:perspective  sodipodi:type="inkscape:persp3d" inkscape:vp_x="0 : 0.5 : 1" inkscape:vp_z="1 : 0.5 : 1" inkscape:vp_y="0 : 1000 : 0" id="perspective6235" inkscape:persp3d-origin="0.5 : 0.33333333 : 1">
		</inkscape:perspective>
</defs>
<g id="layer7_2_" transform="translate(0,14.006296)" inkscape:label="Glyph No Kerning" sodipodi:insensitive="true" inkscape:groupmode="layer">
	<g id="g6252_3_" transform="matrix(-1,0,0,1,241.29881,-13.250474)">
		<path id="path5882_3_" class="st7" d="M713.9,889.2v12c2.3,0.3,5.3,1.3,8.6,2.7c3.6,1.6,7.1,3.5,10.6,5.4l10,5.8l3.2,2.4v-12
			c-0.1-1.1-1.9-1.7-3.2-2.4l-10-5.8c-3.5-1.9-6.9-4.3-10.6-5.4C719.7,890.4,716.9,889.7,713.9,889.2z"/>
		<path id="path5890_3_" class="st8" d="M712.4,889.1c-1.5,0-2.9,0.2-4.3,0.6c-1.8,0.5-3.7,1-5.7,1.8v12c2.2-0.9,3.9-1.4,5.7-1.8
			c2.4-0.7,4.3-0.7,5.8-0.5v-12C713.4,889.1,712.9,889.1,712.4,889.1z"/>
		<path id="path5894_3_" sodipodi:nodetypes="ccccccc" class="st7" d="M699,889.2v12c0,0.8,0.5,0.9,1.1,1.4c0.6,0.4,1.3,0.7,2.4,0.8
			v-12c-1.1-0.3-1.7-0.6-2.4-0.8C699.5,890.3,699.3,889.8,699,889.2z"/>
		<path id="path5920_3_" class="st8" d="M799.6,928.4c-2.2,1.6-4.1,3.4-5.7,5.7c-1.8,1.9-3.6,3.7-5.1,6.4v12
			c1.6-2.2,3.2-4.4,5.1-6.4c1.8-1.9,3.6-3.8,5.7-5.7V928.4z"/>
		<path id="path5932_3_" sodipodi:nodetypes="ccccccccccc" class="st7" d="M758.9,912.8v12c1.2,0,2.8,1.2,4.2,1.9
			c2.8,1.6,5.3,3.1,7.8,4.5c3,1.7,6.1,3.8,9.2,5.9c4,2.8,5.7,5.2,6.7,6.8v-12c-1-2.8-4.5-5.3-6.7-6.8c-2.9-2.1-5.9-4.1-9.2-5.9
			c-2.6-1.7-4.9-3.3-7.8-4.5C761.7,914,760.3,912.6,758.9,912.8z"/>
		<path id="path5940_3_" class="st8" d="M758.4,912.7c-0.6,0.1-1.7,0.7-3.1,1.4l-48.5,26.8c-3.7,2-9.4,4.9-9.7,7.5l0.2,11.3l9.5-6.8
			l48.5-26.8c1.2-0.6,2.5-1.4,3.5-1.4v-12C758.8,912.7,758.6,912.7,758.4,912.7z"/>
		<path id="path5950_3_" class="st8" d="M706.9,956.7c-0.1,0.4-0.3,0.9-0.7,1.2c-0.6,0.2-1.2,0.4-2,0.3v12c0.7,0.1,1.4,0.1,2-0.3
			c0.3-0.3,0.9-0.3,0.7-1.2V956.7z"/>
		<path id="path5954_3_" class="st7" d="M666,936v12l10.4,5.8l8.4,4.8l8.5,5l10.8,6.6v-12l-10.8-6.6l-8.5-5l-8.4-4.8L666,936z"/>
		<path id="path5924_3_" class="st7" d="M784.4,938.7v12c0.6,0.5,1.3,1,1.9,1.3c0.9,0.3,1.7,0.4,2.6,0.4v-12c-0.8,0-1.6,0-2.6-0.4
			C785.7,939.7,785.1,939.3,784.4,938.7z"/>
		<g id="text4107-1_3_" transform="matrix(-1.0719645,-0.62456957,-0.82134059,0.45432069,-4.9971263e-7,3.7082879e-6)">
			<path id="path4440-7_3_" class="st9" d="M-1083.2,508.4c-0.1-2.1,0.1-3.4,0.4-3.9c0.4-0.5,1.5-0.7,3.4-0.6h9.4
				c3.6,0,6.7,0.3,9.2,0.8s4.6,1.4,6.1,2.5c1,0.8,1.7,2.2,2.2,4.1c0.5,1.9,0.9,3.8,1.1,5.5c0.4,0.4,1,0.6,1.8,0.6s1.3-0.3,1.7-0.8
				c-0.2-2.2-0.1-5.4,0.3-9.5s0.9-7.6,1.7-10.6c-0.2-0.3-0.5-0.4-1-0.5s-1,0-1.3,0.1c-0.8,1.7-1.9,2.7-3.2,3.1
				c-1.3,0.4-3.7,0.6-7.1,0.6h-53.5c-3.1,0.1-5.6-0.1-7.6-0.5s-3.2-1.6-3.6-3.6c-0.3-0.2-0.7-0.3-1.3-0.2c-0.6,0-1,0.1-1.3,0.2
				c-0.5,2.8-1.2,6-2.1,9.6s-1.9,7-3,10.1c0.3,0.6,0.8,0.9,1.5,1.2c0.7,0.2,1.3,0.1,1.9-0.2c0.7-1.6,1.5-3.2,2.3-4.7
				c0.9-1.5,2.1-3,3.6-4.4c1.8-1.5,4.2-2.4,7.2-2.8c3.1-0.4,6.1-0.6,9-0.5h7.3c1.9-0.1,3.1,0.1,3.5,0.6s0.6,1.7,0.5,3.6v59
				c0.1,6.7-0.3,11.1-1.3,13.2c-1,2.1-3.3,3.2-6.9,3.3l-4.8,0.4c-0.5,0.4-0.7,1-0.7,1.7c0,0.8,0.3,1.3,0.7,1.6
				c4.1-0.1,7.6-0.2,10.4-0.3c2.8-0.1,5.4-0.1,8-0.1s5.2,0,7.8,0.1c2.6,0.1,5.8,0.2,9.5,0.3c0.4-0.3,0.6-0.8,0.7-1.6
				c0.1-0.8-0.1-1.4-0.5-1.7l-4.2-0.4c-3.7-0.1-6-1.2-6.8-3.3c-0.9-2.1-1.2-6.5-1.1-13.2v-58.8H-1083.2z"/>
		</g>
	</g>
</g>
</svg>
